<svg xmlns="http://www.w3.org/2000/svg" version="1.1" xmlns:xlink="http://www.w3.org/1999/xlink" xmlns:svgjs="http://svgjs.dev/svgjs" width="2000" height="1005" viewBox="0 0 2000 1005"><g transform="matrix(1,0,0,1,-1.2121212121212466,-0.21159931736076487)"><svg viewBox="0 0 396 199" data-background-color="#ffffff" preserveAspectRatio="xMidYMid meet" height="1005" width="2000" xmlns="http://www.w3.org/2000/svg" xmlns:xlink="http://www.w3.org/1999/xlink"><g id="tight-bounds" transform="matrix(1,0,0,1,0.2400000000000091,0.04189877030327693)"><svg viewBox="0 0 395.52 198.91620245939345" height="198.91620245939345" width="395.52"><g><svg viewBox="0 0 395.52 198.91620245939345" height="198.91620245939345" width="395.52"><g transform="matrix(1,0,0,1,0,120.4201893739639)"><svg viewBox="0 0 395.52 78.49601308542954" height="78.49601308542954" width="395.52"><g id="textblocktransform"><svg viewBox="0 0 395.52 78.49601308542954" height="78.49601308542954" width="395.52" id="textblock"><g><svg viewBox="0 0 395.52 50.57142314297197" height="50.57142314297197" width="395.52"><g transform="matrix(1,0,0,1,0,0)"><svg width="395.52" viewBox="2.39 -37.38 296.95 37.940000000000005" height="50.57142314297197" data-palette-color="#250d08"><path d="M2.39-34.74L2.39-36.82 14.36-36.82 14.36-34.74 10.62-34.18 10.62-20.24 31.01-20.24 31.01-34.18 27.29-34.74 27.29-36.82 39.26-36.82 39.26-34.74 35.57-34.18 35.57-2.64 39.26-2.08 39.26 0 27.29 0 27.29-2.08 31.01-2.64 31.01-17.31 10.62-17.31 10.62-2.64 14.36-2.08 14.36 0 2.39 0 2.39-2.08 6.1-2.64 6.1-34.18 2.39-34.74ZM48.4-4.74Q46.02-7.2 44.79-10.56 43.55-13.92 43.55-17.35 43.55-20.78 44.24-23.41 44.92-26.05 46.13-28.22 47.34-30.4 49.03-32.1 50.73-33.81 52.76-34.99L52.76-34.99Q56.88-37.38 61.59-37.38 66.31-37.38 69.77-36 73.24-34.62 75.61-32.2L75.61-32.2Q80.42-27.29 80.42-19.31L80.42-19.31Q80.42-10.42 75.02-4.81L75.02-4.81Q72.53-2.22 69.22-0.83 65.92 0.56 61.83 0.56 57.74 0.56 54.26-0.85 50.78-2.27 48.4-4.74ZM51.98-29.93Q50.19-27.86 49.23-25.1 48.26-22.34 48.26-19.7 48.26-17.07 48.65-14.97 49.05-12.87 49.81-11 50.58-9.13 51.74-7.54 52.9-5.96 54.44-4.81L54.44-4.81Q57.71-2.37 62.16-2.37L62.16-2.37Q68.23-2.37 72.04-6.49L72.04-6.49Q75.78-10.55 75.78-17.07L75.78-17.07Q75.78-24.24 72.53-29L72.53-29Q68.82-34.45 61.69-34.45L61.69-34.45Q55.81-34.45 51.98-29.93L51.98-29.93ZM86.66-36.82L117.77-36.82 118.35-28.98 116.16-28.98 114.91-33.86 104.49-33.86 104.49-2.64 109.86-2.08 109.86 0 94.6 0 94.6-2.08 99.92-2.64 99.92-33.86 89.55-33.86 88.23-28.98 86.08-28.98 86.66-36.82ZM140.98-15.09L140.25-17.65 131.27-17.65 131.27-2.93 144.87-2.93 146.62-7.25 148.48-7.25 147.67 0 122.97 0 122.97-2.08 126.68-2.64 126.68-34.18 122.97-34.74 122.97-36.82 146.6-36.82 147.16-29.57 145.01-29.57 143.69-33.86 131.27-33.86 131.27-20.58 140.25-20.58 140.98-23.17 142.72-23.17 142.72-15.09 140.98-15.09ZM151.92-36.82L163.88-36.82 163.88-34.74 160.22-34.18 160.22-2.93 173.6-2.93 175.04-8.4 177.04-8.4 176.82 0 151.92 0 151.92-2.08 155.63-2.64 155.63-34.18 151.92-34.74 151.92-36.82ZM198.4-34.74L198.4-36.82 210.36-36.82 210.36-34.74 206.67-34.18 206.67-2.64 210.36-2.08 210.36 0 198.4 0 198.4-2.08 202.16-2.64 202.16-34.18 198.4-34.74ZM232.94-14.48L232.21-17.07 222.76-17.07 222.76-2.64 228.3-2.08 228.3 0 214.46 0 214.46-2.08 218.17-2.64 218.17-34.18 214.46-34.74 214.46-36.82 239.31-36.82 239.88-29.57 237.73-29.57 236.41-33.86 222.76-33.86 222.76-20.02 232.21-20.02 232.94-22.61 234.46-22.61 234.46-14.48 232.94-14.48ZM256.3-2.34L256.3-2.34Q258.11-2.34 259.59-2.7 261.06-3.05 262.14-3.81L262.14-3.81Q264.43-5.4 264.43-8.45L264.43-8.45Q264.43-11.04 262.75-12.7L262.75-12.7Q260.97-14.4 256.97-16.15 252.98-17.9 250.9-19.27 248.81-20.65 247.61-22.07L247.61-22.07Q245.44-24.56 245.44-28.1L245.44-28.1Q245.44-32.2 248.98-34.86L248.98-34.86Q252.27-37.38 256.96-37.38L256.96-37.38Q260.65-37.38 264.34-36.04L264.34-36.04Q265.87-35.42 267.12-34.69L267.12-34.69 266.26-28.17 264.21-28.17Q264.21-31.54 262.38-33.07 260.55-34.59 257.08-34.59L257.08-34.59Q252.3-34.59 250.54-31.47L250.54-31.47Q249.98-30.44 249.98-29.17 249.98-27.91 250.35-26.89 250.71-25.88 251.76-24.9L251.76-24.9Q253.81-22.92 259.48-20.56L259.48-20.56Q267.39-17.19 268.71-12.6L268.71-12.6Q269.1-11.16 269.1-9.53 269.1-7.91 268.55-6.46 268-5 267.05-3.87 266.09-2.73 264.84-1.9 263.58-1.07 262.16-0.54L262.16-0.54Q255.89 1.9 248.98-0.93L248.98-0.93Q246.46-1.98 244.54-3.49L244.54-3.49 245.56-10.5 247.64-10.5Q247.64-5.59 250.74-3.66L250.74-3.66Q252.86-2.34 256.3-2.34ZM286.06 0L272.95 0 272.95-2.08 276.66-2.64 276.66-34.18 272.95-34.74 272.95-36.82 284.99-36.82Q295.39-36.82 298.27-31.2L298.27-31.2Q299.34-29.13 299.34-26.21 299.34-23.29 298.38-21.04 297.41-18.8 295.51-17.24L295.51-17.24Q291.58-13.96 284.18-13.96L284.18-13.96 281.25-13.96 281.25-2.64 286.06-2.08 286.06 0ZM284.4-33.86L281.25-33.86 281.25-16.55 284.87-16.55Q289.72-16.55 292.29-19.14L292.29-19.14Q294.56-21.48 294.56-25.46L294.56-25.46Q294.56-29.57 292.38-31.59L292.38-31.59Q289.97-33.86 284.4-33.86L284.4-33.86Z" opacity="1" transform="matrix(1,0,0,1,0,0)" fill="#250d08" class="wordmark-text-0" data-fill-palette-color="primary" id="text-0"></path></svg></g></svg></g><g transform="matrix(1,0,0,1,88.99199999999999,62.51012243287222)"><svg viewBox="0 0 217.536 15.985890652557318" height="15.985890652557318" width="217.536"><g transform="matrix(1,0,0,1,0,0)"><svg width="217.536" viewBox="2.85 -36.35 510.25 37.5" height="15.985890652557318" data-palette-color="#7c4e29"><path d="M20.1 0.85Q15.25 0.85 11.33-1.43 7.4-3.7 5.13-7.68 2.85-11.65 2.85-16.5L2.85-16.5 2.85-17.45Q2.85-22.35 5.1-26.38 7.35-30.4 11.25-32.7 15.15-35 19.9-35L19.9-35Q24.7-35 28.6-32.7 32.5-30.4 34.75-26.38 37-22.35 37-17.45L37-17.45 37-16.5Q37-11.55 34.8-7.6 32.6-3.65 28.75-1.4 24.9 0.85 20.1 0.85L20.1 0.85ZM19.95-1.95Q23.9-1.95 27.1-3.85 30.3-5.75 32.15-9.08 34-12.4 34-16.5L34-16.5 34-17.45Q34-21.6 32.13-24.98 30.25-28.35 27.03-30.28 23.8-32.2 19.85-32.2L19.85-32.2Q15.95-32.2 12.75-30.25 9.55-28.3 7.7-24.93 5.85-21.55 5.85-17.45L5.85-17.45 5.85-16.5Q5.85-12.4 7.7-9.08 9.55-5.75 12.78-3.85 16-1.95 19.95-1.95L19.95-1.95ZM58.15-17.65Q58.15-21.5 56.1-23.55L56.1-23.55 57.95-25.4Q60.1-23.8 60.7-21.15L60.7-21.15Q62.1-23.35 64.07-24.43 66.05-25.5 68.4-25.5L68.4-25.5Q70.85-25.5 72.67-24.35 74.5-23.2 75.4-21L75.4-21Q76.8-23.2 78.87-24.35 80.95-25.5 83.3-25.5L83.3-25.5Q86.7-25.5 88.87-23.3 91.05-21.1 91-17.35L91-17.35 90.8 0 87.9 0 88-16.8Q88-22.8 83.05-22.8L83.05-22.8Q78.65-22.8 76.05-17.8L76.05-17.8 76.05 0 73.05 0 73.05-16.8Q73.05-19.6 71.82-21.23 70.6-22.85 68.25-22.85L68.25-22.85Q65.95-22.85 63.97-21.4 62-19.95 61.15-17.9L61.15-17.9 61.15 0 58.15 0 58.15-17.65ZM99.59-11.45Q99.64-7.95 101.29-5.05 102.94-2.15 107.89-2.15L107.89-2.15Q110.04-2.15 111.87-2.7 113.69-3.25 115.84-4.5L115.84-4.5 117.14-2.4Q115.14-1.05 112.69-0.25 110.24 0.55 107.69 0.55L107.69 0.55Q102.44 0.55 99.52-2.83 96.59-6.2 96.59-11.7L96.59-11.7Q96.59-15.25 97.89-18.38 99.19-21.5 101.74-23.45 104.29-25.4 107.74-25.4L107.74-25.4Q110.64-25.4 113.02-24.03 115.39-22.65 116.77-20.28 118.14-17.9 118.14-15L118.14-15Q118.14-14.2 118.09-13.58 118.04-12.95 117.99-12.5L117.99-12.5 117.89-11.45 99.59-11.45ZM99.74-14.15L115.09-14.15Q115.14-14.5 115.14-15.15L115.14-15.15Q115.14-17.25 114.14-18.98 113.14-20.7 111.44-21.7 109.74-22.7 107.69-22.7L107.69-22.7Q104.64-22.7 102.47-20.48 100.29-18.25 99.74-14.15L99.74-14.15ZM124.19 0L124.19-36.3 127.19-36.3 127.19 0 124.19 0ZM135.19-36.3L138.19-36.3 138.19-21.35Q139.74-23.5 141.79-24.5 143.84-25.5 146.54-25.5L146.54-25.5Q150.59-25.5 152.61-23.38 154.64-21.25 154.64-17.35L154.64-17.35 154.64 0 151.64 0 151.64-16.8Q151.64-19.55 150.29-21.13 148.94-22.7 146.24-22.7L146.24-22.7Q143.84-22.7 141.94-21.45 140.04-20.2 138.19-17.7L138.19-17.7 138.19 0 135.19 0 135.19-36.3ZM172.69 0.5Q169.14 0.5 166.36-1.15 163.59-2.8 162.04-5.75 160.49-8.7 160.49-12.45L160.49-12.45Q160.49-16.2 162.06-19.18 163.64-22.15 166.41-23.83 169.19-25.5 172.74-25.5L172.74-25.5Q176.24-25.5 179.01-23.83 181.79-22.15 183.36-19.2 184.94-16.25 184.94-12.5L184.94-12.5Q184.94-8.75 183.36-5.8 181.79-2.85 179.01-1.18 176.24 0.5 172.69 0.5L172.69 0.5ZM172.74-2.2Q176.89-2.2 179.41-5.05 181.94-7.9 181.94-12.5L181.94-12.5Q181.94-15.55 180.79-17.88 179.64-20.2 177.54-21.5 175.44-22.8 172.74-22.8L172.74-22.8Q169.99-22.8 167.89-21.5 165.79-20.2 164.64-17.82 163.49-15.45 163.49-12.45L163.49-12.45Q163.49-9.45 164.64-7.13 165.79-4.8 167.89-3.5 169.99-2.2 172.74-2.2L172.74-2.2ZM200.88-25.5Q202.38-25.5 203.88-25.05L203.88-25.05 203.88-22.25Q202.43-22.6 200.98-22.6L200.98-22.6Q198.43-22.6 196.83-21.35L196.83-21.35Q195.23-20.1 193.98-17.8L193.98-17.8 193.98 0 190.98 0 190.98-17.5Q190.98-21.45 188.88-23.3L188.88-23.3 190.88-25.3Q191.78-24.75 192.58-23.65 193.38-22.55 193.73-21.2L193.73-21.2Q195.13-23.5 196.53-24.35L196.53-24.35Q198.28-25.5 200.88-25.5L200.88-25.5ZM223.08-36.3L226.08-36.3 226.08-21.35Q227.63-23.5 229.68-24.5 231.73-25.5 234.43-25.5L234.43-25.5Q238.48-25.5 240.5-23.38 242.53-21.25 242.53-17.35L242.53-17.35 242.53 0 239.53 0 239.53-16.8Q239.53-19.55 238.18-21.13 236.83-22.7 234.13-22.7L234.13-22.7Q231.73-22.7 229.83-21.45 227.93-20.2 226.08-17.7L226.08-17.7 226.08 0 223.08 0 223.08-36.3ZM260.58 0.5Q257.03 0.5 254.25-1.15 251.48-2.8 249.93-5.75 248.38-8.7 248.38-12.45L248.38-12.45Q248.38-16.2 249.95-19.18 251.53-22.15 254.3-23.83 257.08-25.5 260.63-25.5L260.63-25.5Q264.13-25.5 266.9-23.83 269.68-22.15 271.25-19.2 272.83-16.25 272.83-12.5L272.83-12.5Q272.83-8.75 271.25-5.8 269.68-2.85 266.9-1.18 264.13 0.5 260.58 0.5L260.58 0.5ZM260.63-2.2Q264.78-2.2 267.3-5.05 269.83-7.9 269.83-12.5L269.83-12.5Q269.83-15.55 268.68-17.88 267.53-20.2 265.43-21.5 263.33-22.8 260.63-22.8L260.63-22.8Q257.88-22.8 255.78-21.5 253.68-20.2 252.53-17.82 251.38-15.45 251.38-12.45L251.38-12.45Q251.38-9.45 252.53-7.13 253.68-4.8 255.78-3.5 257.88-2.2 260.63-2.2L260.63-2.2ZM285.87 0.7Q282.27 0.7 280.5-1.2 278.72-3.1 278.72-7.2L278.72-7.2 278.72-31.25 281.72-31.25 281.72-25 289.57-25 289.57-22.3 281.72-22.3 281.72-7.2Q281.72-4.05 282.9-3.03 284.07-2 285.82-2L285.82-2Q286.87-2 287.57-2.13 288.27-2.25 289.12-2.75L289.12-2.75 290.47-0.45Q288.62 0.7 285.87 0.7L285.87 0.7ZM295.87-11.45Q295.92-7.95 297.57-5.05 299.22-2.15 304.17-2.15L304.17-2.15Q306.32-2.15 308.15-2.7 309.97-3.25 312.12-4.5L312.12-4.5 313.42-2.4Q311.42-1.05 308.97-0.25 306.52 0.55 303.97 0.55L303.97 0.55Q298.72 0.55 295.8-2.83 292.87-6.2 292.87-11.7L292.87-11.7Q292.87-15.25 294.17-18.38 295.47-21.5 298.02-23.45 300.57-25.4 304.02-25.4L304.02-25.4Q306.92-25.4 309.3-24.03 311.67-22.65 313.05-20.28 314.42-17.9 314.42-15L314.42-15Q314.42-14.2 314.37-13.58 314.32-12.95 314.27-12.5L314.27-12.5 314.17-11.45 295.87-11.45ZM296.02-14.15L311.37-14.15Q311.42-14.5 311.42-15.15L311.42-15.15Q311.42-17.25 310.42-18.98 309.42-20.7 307.72-21.7 306.02-22.7 303.97-22.7L303.97-22.7Q300.92-22.7 298.75-20.48 296.57-18.25 296.02-14.15L296.02-14.15ZM320.47 0L320.47-36.3 323.47-36.3 323.47 0 320.47 0ZM354.26 0.5Q350.91 0.5 348.51-1.23 346.11-2.95 344.86-5.88 343.61-8.8 343.61-12.3L343.61-12.3Q343.61-16.1 345.04-19.07 346.46-22.05 349.21-23.73 351.96-25.4 355.76-25.4L355.76-25.4Q356.91-25.4 358.69-25.28 360.46-25.15 361.81-24.95L361.81-24.95 361.81-36.35 364.56-36.35 364.56-7.2Q364.56-3.35 366.51-1.25L366.51-1.25 364.81 0.4Q362.86-1.05 362.16-3.9L362.16-3.9Q361.01-1.65 358.89-0.58 356.76 0.5 354.26 0.5L354.26 0.5ZM354.41-2.1Q356.66-2.1 358.44-3.2 360.21-4.3 361.11-6.2L361.11-6.2Q361.81-7.6 361.81-9.4L361.81-9.4 361.81-22.3Q359.06-22.65 357.84-22.73 356.61-22.8 355.31-22.8L355.31-22.8Q352.56-22.8 350.56-21.45 348.56-20.1 347.51-17.73 346.46-15.35 346.46-12.45L346.46-12.45Q346.46-8.1 348.56-5.1 350.66-2.1 354.41-2.1L354.41-2.1ZM373.46-11.45Q373.51-7.95 375.16-5.05 376.81-2.15 381.76-2.15L381.76-2.15Q383.91-2.15 385.74-2.7 387.56-3.25 389.71-4.5L389.71-4.5 391.01-2.4Q389.01-1.05 386.56-0.25 384.11 0.55 381.56 0.55L381.56 0.55Q376.31 0.55 373.39-2.83 370.46-6.2 370.46-11.7L370.46-11.7Q370.46-15.25 371.76-18.38 373.06-21.5 375.61-23.45 378.16-25.4 381.61-25.4L381.61-25.4Q384.51-25.4 386.89-24.03 389.26-22.65 390.64-20.28 392.01-17.9 392.01-15L392.01-15Q392.01-14.2 391.96-13.58 391.91-12.95 391.86-12.5L391.86-12.5 391.76-11.45 373.46-11.45ZM373.61-14.15L388.96-14.15Q389.01-14.5 389.01-15.15L389.01-15.15Q389.01-17.25 388.01-18.98 387.01-20.7 385.31-21.7 383.61-22.7 381.56-22.7L381.56-22.7Q378.51-22.7 376.34-20.48 374.16-18.25 373.61-14.15L373.61-14.15ZM422.41 1.15Q419.91 1.15 417.36 0.08 414.81-1 412.88-2.9 410.96-4.8 410.31-7.2L410.31-7.2 412.86-8.2Q413.81-5.15 416.58-3.38 419.36-1.6 422.41-1.6L422.41-1.6Q424.71-1.6 426.61-2.58 428.51-3.55 429.61-5.33 430.71-7.1 430.71-9.35L430.71-9.35Q430.71-11.75 429.38-13.3 428.06-14.85 424.91-16.4L424.91-16.4Q420.66-18.45 418.46-19.75 416.26-21.05 414.86-22.83 413.46-24.6 413.46-27.05L413.46-27.05Q413.46-29.45 414.76-31.3 416.06-33.15 418.23-34.15 420.41-35.15 422.91-35.15L422.91-35.15Q425.01-35.15 426.83-34.38 428.66-33.6 429.68-32.23 430.71-30.85 430.61-29.15L430.61-29.15 427.81-29.3Q427.81-30.75 426.23-31.58 424.66-32.4 422.81-32.4L422.81-32.4Q420.21-32.4 418.33-30.9 416.46-29.4 416.46-27.2L416.46-27.2Q416.46-25.5 417.61-24.15 418.76-22.8 420.33-21.88 421.91-20.95 424.31-19.85L424.31-19.85Q424.81-19.6 425.36-19.35 425.91-19.1 426.41-18.8L426.41-18.8Q430.36-16.7 432.03-14.53 433.71-12.35 433.71-9.3L433.71-9.3Q433.71-6.25 432.13-3.88 430.56-1.5 427.96-0.18 425.36 1.15 422.41 1.15L422.41 1.15ZM455.85 0.4Q454.9-0.35 454.33-1.25 453.75-2.15 453.25-3.6L453.25-3.6Q452.25-1.65 450.28-0.58 448.3 0.5 445.5 0.5L445.5 0.5Q441.55 0.5 439.18-1.6 436.8-3.7 436.8-7.3L436.8-7.3Q436.8-11.1 439.48-13.2 442.15-15.3 447.05-15.3L447.05-15.3 452.85-15.3 452.85-17.1Q452.85-20.1 451.55-21.55 450.25-23 447.55-23L447.55-23Q445.55-23 443.45-22.28 441.35-21.55 439.7-20.3L439.7-20.3 438.35-22.5Q440.2-24.05 442.63-24.88 445.05-25.7 447.6-25.7L447.6-25.7Q451.65-25.7 453.75-23.63 455.85-21.55 455.85-17.65L455.85-17.65 455.85-7.2Q455.85-3.35 457.8-1.25L457.8-1.25 455.85 0.4ZM445.55-2.2Q448.9-2.2 450.88-4.05 452.85-5.9 452.85-8.85L452.85-8.85 452.85-12.6 447.75-12.6Q443.5-12.6 441.65-11.38 439.8-10.15 439.8-7.35L439.8-7.35Q439.8-4.85 441.3-3.53 442.8-2.2 445.55-2.2L445.55-2.2ZM463.75 0L463.75-36.3 466.75-36.3 466.75 0 463.75 0ZM481.5 0.7Q477.9 0.7 476.12-1.2 474.35-3.1 474.35-7.2L474.35-7.2 474.35-31.25 477.35-31.25 477.35-25 485.2-25 485.2-22.3 477.35-22.3 477.35-7.2Q477.35-4.05 478.52-3.03 479.7-2 481.45-2L481.45-2Q482.5-2 483.2-2.13 483.9-2.25 484.75-2.75L484.75-2.75 486.1-0.45Q484.25 0.7 481.5 0.7L481.5 0.7ZM500.85 0.5Q497.3 0.5 494.52-1.15 491.75-2.8 490.2-5.75 488.65-8.7 488.65-12.45L488.65-12.45Q488.65-16.2 490.22-19.18 491.8-22.15 494.57-23.83 497.35-25.5 500.9-25.5L500.9-25.5Q504.4-25.5 507.17-23.83 509.95-22.15 511.52-19.2 513.1-16.25 513.1-12.5L513.1-12.5Q513.1-8.75 511.52-5.8 509.95-2.85 507.17-1.18 504.4 0.5 500.85 0.5L500.85 0.5ZM500.9-2.2Q505.05-2.2 507.57-5.05 510.1-7.9 510.1-12.5L510.1-12.5Q510.1-15.55 508.95-17.88 507.8-20.2 505.7-21.5 503.6-22.8 500.9-22.8L500.9-22.8Q498.15-22.8 496.05-21.5 493.95-20.2 492.8-17.82 491.65-15.45 491.65-12.45L491.65-12.45Q491.65-9.45 492.8-7.13 493.95-4.8 496.05-3.5 498.15-2.2 500.9-2.2L500.9-2.2Z" opacity="1" transform="matrix(1,0,0,1,0,0)" fill="#7c4e29" class="slogan-text-1" data-fill-palette-color="secondary" id="text-1"></path></svg></g></svg></g></svg></g></svg></g><g transform="matrix(1,0,0,1,115.96670785739673,0)"><svg viewBox="0 0 163.58658428520653 108.48149008406364" height="108.48149008406364" width="163.58658428520653"><g><svg xmlns="http://www.w3.org/2000/svg" xmlns:xlink="http://www.w3.org/1999/xlink" version="1.1" x="8" y="0" viewBox="4.660196892413095 20.351000000000003 90.67443900708136 66.649" enable-background="new 0 0 100 100" xml:space="preserve" height="108.48149008406364" width="147.58658428520653" class="icon-icon-0" data-fill-palette-color="accent" id="icon-0"><path d="M94.05 51.572L53.179 21.701c-1.806-1.8-4.998-1.8-6.805 0L6.192 50.883c-1.879 1.879-2.1 4.471-0.269 6.4 0.531 0.555 1.218 0.885 1.958 1.047 1.08 0.311 2.246 0.191 3.253-0.354 0.083-0.035 0.156-0.084 0.237-0.125 0.033-0.023 0.068-0.037 0.102-0.057 0.48-0.252 1.107-0.557 1.494-0.945L18 53.432v30.125C18 85.066 19.063 87 20.575 87h58.83C80.917 87 83 85.066 83 83.561V53.432l4.489 3.59c0.094 0.088 0.048 0.158 0.144 0.236l0.364 0.438c1.69 1.691 4.396 1.691 6.087 0S95.739 53.264 94.05 51.572zM49 54h15.101C66.115 54 68 54.729 68 56.743V64H49V54zM37.703 49.552c2.374 0 4.388 2.014 4.388 4.389 0 2.445-2.014 4.387-4.388 4.387s-4.388-1.941-4.388-4.387C33.315 51.565 35.329 49.552 37.703 49.552zM35.329 60H43v-4.837c0-1.152 0.922-2.016 2-2.016 1.152 0 2 0.863 2 2.016v5.609C47 62.067 45.759 64 44.536 64h-9.207c-1.15 0-2.014-0.885-2.014-2.035C33.315 60.885 34.179 60 35.329 60zM74 79h-4v-7H32v7h-4V50.984c0-1.295 0.706-2.445 2-2.445s2 1.15 2 2.445V66h38v-9.045c0-1.295 0.741-2.375 1.964-2.375 1.295 0 2.036 1.08 2.036 2.375V79z" fill="#cca26a" data-fill-palette-color="accent"></path></svg></g></svg></g><g><rect width="115.96670785739673" height="4.560583128741896" y="102.92090695532174" x="279.55329214260325" fill="#cca26a" data-fill-palette-color="accent"></rect><rect width="115.96670785739673" height="4.560583128741896" y="102.92090695532174" x="0" fill="#cca26a" data-fill-palette-color="accent"></rect><rect width="115.96670785739673" height="4.560583128741896" y="93.79974069783795" x="279.55329214260325" fill="#cca26a" data-fill-palette-color="accent"></rect><rect width="115.96670785739673" height="4.560583128741896" y="93.79974069783795" x="0" fill="#cca26a" data-fill-palette-color="accent"></rect></g></svg></g><defs></defs></svg><rect width="395.52" height="198.91620245939345" fill="none" stroke="none" visibility="hidden"></rect></g></svg></g></svg>